<?xml version="1.0" encoding="utf-8"?>
<!-- Generator: Adobe Illustrator 18.0.0, SVG Export Plug-In . SVG Version: 6.00 Build 0)  -->
<!DOCTYPE svg PUBLIC "-//W3C//DTD SVG 1.1//EN" "http://www.w3.org/Graphics/SVG/1.1/DTD/svg11.dtd" [
	<!ENTITY ns_flows "http://ns.adobe.com/Flows/1.0/">
	<!ENTITY ns_extend "http://ns.adobe.com/Extensibility/1.0/">
	<!ENTITY ns_ai "http://ns.adobe.com/AdobeIllustrator/10.0/">
	<!ENTITY ns_graphs "http://ns.adobe.com/Graphs/1.0/">
	<!ENTITY ns_vars "http://ns.adobe.com/Variables/1.0/">
	<!ENTITY ns_imrep "http://ns.adobe.com/ImageReplacement/1.0/">
	<!ENTITY ns_sfw "http://ns.adobe.com/SaveForWeb/1.0/">
	<!ENTITY ns_custom "http://ns.adobe.com/GenericCustomNamespace/1.0/">
	<!ENTITY ns_adobe_xpath "http://ns.adobe.com/XPath/1.0/">
]>
<svg version="1.1" id="Layer_1" xmlns:x="&ns_extend;" xmlns:i="&ns_ai;" xmlns:graph="&ns_graphs;"
	 xmlns="http://www.w3.org/2000/svg" xmlns:xlink="http://www.w3.org/1999/xlink" xmlns:a="http://ns.adobe.com/AdobeSVGViewerExtensions/3.0/"
	 x="0px" y="0px" width="50px" height="50px" viewBox="0 0 50 50" enable-background="new 0 0 50 50" xml:space="preserve">
<metadata>
	<sfw  xmlns="&ns_sfw;">
		<slices></slices>
		<sliceSourceBounds  height="25" width="30" y="-37.5" x="10" bottomLeftOrigin="true"></sliceSourceBounds>
	</sfw>
</metadata>
<g>
	<g>
		<g>
			<path fill="#C62828" d="M16.5,26.2v10.2c0,0.6,0.5,1.1,1.1,1.1c0.6,0,1.1-0.5,1.1-1.1V26.2c0-0.6-0.5-1.1-1.1-1.1
				C17,25.1,16.5,25.6,16.5,26.2z"/>
			<path fill="#C62828" d="M13.1,37.5h2.4V25.4c0-0.1,0-0.1,0-0.2c0-5.2,4.2-9.5,9.5-9.5c5.2,0,9.5,4.2,9.5,9.5c0,0.1,0,0.2,0,0.2
				v12h2.4c1.7,0,3.1-1.4,3.1-3.2V28c0-1.4-0.9-2.6-2.2-3C37.7,18.1,32,12.5,25,12.5c-7,0-12.7,5.6-12.8,12.5
				c-1.3,0.4-2.2,1.6-2.2,3v6.3C10,36.1,11.4,37.5,13.1,37.5z"/>
			<path fill="#C62828" d="M31.2,26.2v10.2c0,0.6,0.5,1.1,1.1,1.1s1.1-0.5,1.1-1.1V26.2c0-0.6-0.5-1.1-1.1-1.1
				C31.7,25.1,31.2,25.6,31.2,26.2z"/>
		</g>
	</g>
</g>
</svg>
